<svg xmlns="http://www.w3.org/2000/svg" viewBox="0 0 24 26" width="24" height="26">
	<style>
		tspan { white-space:pre }
		.shp0 { fill: #42504f } 
	</style>
	<g id="Page 1">
		<path id="Path 1" class="shp0" d="M12.08,14.2c0.2,0 0.39,-0.08 0.52,-0.22c0.14,-0.15 0.23,-0.34 0.23,-0.53v-11.69c0,-0.2 -0.08,-0.39 -0.21,-0.53c-0.15,-0.15 -0.34,-0.23 -0.54,-0.23h-0.41c-0.2,0 -0.39,0.08 -0.54,0.23c-0.14,0.14 -0.22,0.33 -0.22,0.53v11.68c0,0.2 0.08,0.4 0.22,0.53c0.14,0.14 0.33,0.22 0.53,0.22zM11.95,25.99c3.19,0 6.19,-1.24 8.45,-3.5c2.26,-2.25 3.5,-5.25 3.5,-8.44c0,-2.43 -0.72,-4.76 -2.07,-6.73c-0.29,-0.42 -0.56,-0.77 -0.83,-1.07c-0.31,-0.35 -0.62,-0.68 -0.94,-0.97l-0.1,-0.09c-0.13,-0.12 -0.26,-0.23 -0.39,-0.33l-0.29,-0.23c-0.09,-0.07 -0.16,-0.12 -0.21,-0.15c-0.08,-0.03 -0.15,-0.05 -0.29,-0.05c-0.33,0 -0.66,0.14 -0.9,0.38c-0.24,0.24 -0.37,0.56 -0.37,0.9c0,0.28 0,0.28 0.38,0.56c0.08,0.06 0.17,0.13 0.27,0.2c0.19,0.15 0.36,0.31 0.55,0.48l0.19,0.18c0.76,0.76 1.38,1.62 1.84,2.57c0.09,0.18 0.18,0.36 0.25,0.55c0.51,1.21 0.77,2.5 0.77,3.82c0,2.62 -1.03,5.09 -2.88,6.93c-1.7,1.7 -3.92,2.7 -6.31,2.85l0,0.02l-1.08,0l0,-0.01c-2.44,-0.11 -4.73,-1.11 -6.47,-2.86c-1.85,-1.85 -2.87,-4.31 -2.88,-6.93l0,-0.71h0.03c0.15,-1.95 0.89,-3.85 2.13,-5.42c0.27,-0.34 0.56,-0.65 0.86,-0.95c0.29,-0.28 0.57,-0.52 0.84,-0.72l0.14,-0.11c0.14,-0.11 0.19,-0.16 0.19,-0.16v0c0.02,-0.05 0.03,-0.15 0.03,-0.31c0,-0.25 -0.07,-0.49 -0.2,-0.69l-0.08,-0.1c-0.04,-0.04 -0.07,-0.08 -0.1,-0.12c-0.09,-0.09 -0.19,-0.16 -0.32,-0.23c-0.04,-0.02 -0.08,-0.03 -0.09,-0.04c-0.16,-0.06 -0.32,-0.1 -0.49,-0.1c-0.13,0 -0.18,0.02 -0.2,0.03c-0.05,0.02 -0.11,0.06 -0.25,0.17c-0.2,0.16 -0.41,0.32 -0.61,0.51l-0.11,0.1l-0.12,0.11c-0.98,0.92 -1.8,1.99 -2.42,3.18c-0.12,0.23 -0.24,0.47 -0.34,0.71c-0.68,1.53 -1.02,3.16 -1.02,4.84c0,3.19 1.24,6.19 3.5,8.45c2.24,2.24 5.21,3.48 8.36,3.5z" />
	</g>
</svg>